<?xml version="1.0" encoding="UTF-8" standalone="no"?>
<!-- Created with Inkscape (http://www.inkscape.org/) -->

<svg
   xmlns:dc="http://purl.org/dc/elements/1.1/"
   xmlns:cc="http://creativecommons.org/ns#"
   xmlns:rdf="http://www.w3.org/1999/02/22-rdf-syntax-ns#"
   xmlns:svg="http://www.w3.org/2000/svg"
   xmlns="http://www.w3.org/2000/svg"
   xmlns:xlink="http://www.w3.org/1999/xlink"
   xmlns:sodipodi="http://sodipodi.sourceforge.net/DTD/sodipodi-0.dtd"
   xmlns:inkscape="http://www.inkscape.org/namespaces/inkscape"
   width="128mm"
   height="427.4599mm"
   viewBox="0 0 128 427.4599"
   version="1.1"
   id="svg8"
   inkscape:version="0.92.4 5da689c313, 2019-01-14"
   sodipodi:docname="logos.svg">
  <defs
     id="defs2">
    <linearGradient
       y2="141.7533"
       x2="132.27631"
       y1="215.5488"
       x1="174.0737"
       gradientUnits="userSpaceOnUse"
       id="XMLID_17_-9">
      <stop
         id="stop3272-4"
         style="stop-color:#FB7655"
         offset="0" />
      <stop
         id="stop3274-5"
         style="stop-color:#FB7655"
         offset="0" />
      <stop
         id="stop3276-1"
         style="stop-color:#E42B1E"
         offset="0.41" />
      <stop
         id="stop3278-0"
         style="stop-color:#990000"
         offset="0.99" />
      <stop
         id="stop3280-3"
         style="stop-color:#990000"
         offset="1" />
    </linearGradient>
    <linearGradient
       y2="117.4093"
       x2="141.0276"
       y1="153.5576"
       x1="194.895"
       gradientUnits="userSpaceOnUse"
       id="XMLID_18_-7">
      <stop
         id="stop3285-8"
         style="stop-color:#871101"
         offset="0" />
      <stop
         id="stop3287-8"
         style="stop-color:#871101"
         offset="0" />
      <stop
         id="stop3289-6"
         style="stop-color:#911209"
         offset="0.99" />
      <stop
         id="stop3291-0"
         style="stop-color:#911209"
         offset="1" />
    </linearGradient>
    <linearGradient
       y2="181.638"
       x2="97.929703"
       y1="217.7852"
       x1="151.79539"
       gradientUnits="userSpaceOnUse"
       id="XMLID_19_-4">
      <stop
         id="stop3296-6"
         style="stop-color:#871101"
         offset="0" />
      <stop
         id="stop3298-7"
         style="stop-color:#871101"
         offset="0" />
      <stop
         id="stop3300-6"
         style="stop-color:#911209"
         offset="0.99" />
      <stop
         id="stop3302-0"
         style="stop-color:#911209"
         offset="1" />
    </linearGradient>
    <linearGradient
       y2="181.66141"
       x2="47.046902"
       y1="127.3906"
       x1="38.696301"
       gradientUnits="userSpaceOnUse"
       id="XMLID_20_-9">
      <stop
         id="stop3307-7"
         style="stop-color:#FFFFFF"
         offset="0" />
      <stop
         id="stop3309-5"
         style="stop-color:#FFFFFF"
         offset="0" />
      <stop
         id="stop3311-9"
         style="stop-color:#E57252"
         offset="0.23" />
      <stop
         id="stop3313-7"
         style="stop-color:#DE3B20"
         offset="0.46" />
      <stop
         id="stop3315-8"
         style="stop-color:#A60003"
         offset="0.99" />
      <stop
         id="stop3317-5"
         style="stop-color:#A60003"
         offset="1" />
    </linearGradient>
    <linearGradient
       y2="132.1021"
       x2="99.209602"
       y1="76.715302"
       x1="96.132797"
       gradientUnits="userSpaceOnUse"
       id="XMLID_21_-3">
      <stop
         id="stop3322-3"
         style="stop-color:#FFFFFF"
         offset="0" />
      <stop
         id="stop3324-8"
         style="stop-color:#FFFFFF"
         offset="0" />
      <stop
         id="stop3326-3"
         style="stop-color:#E4714E"
         offset="0.23" />
      <stop
         id="stop3328-7"
         style="stop-color:#BE1A0D"
         offset="0.56" />
      <stop
         id="stop3330-9"
         style="stop-color:#A80D00"
         offset="0.99" />
      <stop
         id="stop3332-3"
         style="stop-color:#A80D00"
         offset="1" />
    </linearGradient>
    <linearGradient
       y2="65.216202"
       x2="156.3141"
       y1="25.521"
       x1="147.103"
       gradientUnits="userSpaceOnUse"
       id="XMLID_22_-7">
      <stop
         id="stop3337-8"
         style="stop-color:#FFFFFF"
         offset="0" />
      <stop
         id="stop3339-7"
         style="stop-color:#FFFFFF"
         offset="0" />
      <stop
         id="stop3341-4"
         style="stop-color:#E46342"
         offset="0.18" />
      <stop
         id="stop3343-1"
         style="stop-color:#C82410"
         offset="0.4" />
      <stop
         id="stop3345-9"
         style="stop-color:#A80D00"
         offset="0.99" />
      <stop
         id="stop3347-0"
         style="stop-color:#A80D00"
         offset="1" />
    </linearGradient>
    <linearGradient
       y2="-8.3048"
       x2="158.66859"
       y1="11.5415"
       x1="118.9761"
       gradientUnits="userSpaceOnUse"
       id="XMLID_23_-9">
      <stop
         id="stop3352-8"
         style="stop-color:#FFFFFF"
         offset="0" />
      <stop
         id="stop3354-8"
         style="stop-color:#FFFFFF"
         offset="0" />
      <stop
         id="stop3356-5"
         style="stop-color:#C81F11"
         offset="0.54" />
      <stop
         id="stop3358-8"
         style="stop-color:#BF0905"
         offset="0.99" />
      <stop
         id="stop3360-4"
         style="stop-color:#BF0905"
         offset="1" />
    </linearGradient>
    <linearGradient
       y2="146.2628"
       x2="7.1701999"
       y1="113.5547"
       x1="3.9033"
       gradientUnits="userSpaceOnUse"
       id="XMLID_24_-3">
      <stop
         id="stop3365-7"
         style="stop-color:#FFFFFF"
         offset="0" />
      <stop
         id="stop3367-1"
         style="stop-color:#FFFFFF"
         offset="0" />
      <stop
         id="stop3369-3"
         style="stop-color:#DE4024"
         offset="0.31" />
      <stop
         id="stop3371-8"
         style="stop-color:#BF190B"
         offset="0.99" />
      <stop
         id="stop3373-0"
         style="stop-color:#BF190B"
         offset="1" />
    </linearGradient>
    <linearGradient
       y2="-2.8092999"
       x2="135.0152"
       y1="155.10451"
       x1="-18.5557"
       gradientUnits="userSpaceOnUse"
       id="XMLID_25_-9">
      <stop
         id="stop3380-7"
         style="stop-color:#BD0012"
         offset="0" />
      <stop
         id="stop3382-9"
         style="stop-color:#BD0012"
         offset="0" />
      <stop
         id="stop3384-9"
         style="stop-color:#FFFFFF"
         offset="0.07" />
      <stop
         id="stop3386-3"
         style="stop-color:#FFFFFF"
         offset="0.17" />
      <stop
         id="stop3388-2"
         style="stop-color:#C82F1C"
         offset="0.27" />
      <stop
         id="stop3390-4"
         style="stop-color:#820C01"
         offset="0.33" />
      <stop
         id="stop3392-3"
         style="stop-color:#A31601"
         offset="0.46" />
      <stop
         id="stop3394-7"
         style="stop-color:#B31301"
         offset="0.72" />
      <stop
         id="stop3396-1"
         style="stop-color:#E82609"
         offset="0.99" />
      <stop
         id="stop3398-2"
         style="stop-color:#E82609"
         offset="1" />
    </linearGradient>
    <linearGradient
       y2="159.61659"
       x2="52.817699"
       y1="171.0332"
       x1="99.074699"
       gradientUnits="userSpaceOnUse"
       id="XMLID_26_-2">
      <stop
         id="stop3403-0"
         style="stop-color:#8C0C01"
         offset="0" />
      <stop
         id="stop3405-2"
         style="stop-color:#8C0C01"
         offset="0" />
      <stop
         id="stop3407-1"
         style="stop-color:#990C00"
         offset="0.54" />
      <stop
         id="stop3409-7"
         style="stop-color:#A80D0E"
         offset="0.99" />
      <stop
         id="stop3411-5"
         style="stop-color:#A80D0E"
         offset="1" />
    </linearGradient>
    <linearGradient
       y2="78.683998"
       x2="137.43269"
       y1="115.5146"
       x1="178.52589"
       gradientUnits="userSpaceOnUse"
       id="XMLID_27_-1">
      <stop
         id="stop3416-7"
         style="stop-color:#7E110B"
         offset="0" />
      <stop
         id="stop3418-4"
         style="stop-color:#7E110B"
         offset="0" />
      <stop
         id="stop3420-1"
         style="stop-color:#9E0C00"
         offset="0.99" />
      <stop
         id="stop3422-7"
         style="stop-color:#9E0C00"
         offset="1" />
    </linearGradient>
    <linearGradient
       y2="26.053801"
       x2="173.15421"
       y1="47.937"
       x1="193.6235"
       gradientUnits="userSpaceOnUse"
       id="XMLID_28_-1">
      <stop
         id="stop3427-1"
         style="stop-color:#79130D"
         offset="0" />
      <stop
         id="stop3429-1"
         style="stop-color:#79130D"
         offset="0" />
      <stop
         id="stop3431-7"
         style="stop-color:#9E120B"
         offset="0.99" />
      <stop
         id="stop3433-0"
         style="stop-color:#9E120B"
         offset="1" />
    </linearGradient>
    <radialGradient
       gradientUnits="userSpaceOnUse"
       r="50.357601"
       cy="79.388199"
       cx="143.8315"
       id="XMLID_29_-4">
      <stop
         id="stop3440-0"
         style="stop-color:#A80D00"
         offset="0" />
      <stop
         id="stop3442-8"
         style="stop-color:#A80D00"
         offset="0" />
      <stop
         id="stop3444-5"
         style="stop-color:#7E0E08"
         offset="0.99" />
      <stop
         id="stop3446-1"
         style="stop-color:#7E0E08"
         offset="1" />
    </radialGradient>
    <radialGradient
       gradientUnits="userSpaceOnUse"
       r="66.943703"
       cy="145.75101"
       cx="74.0923"
       id="XMLID_30_-6">
      <stop
         id="stop3451-6"
         style="stop-color:#A30C00"
         offset="0" />
      <stop
         id="stop3453-2"
         style="stop-color:#A30C00"
         offset="0" />
      <stop
         id="stop3455-1"
         style="stop-color:#800E08"
         offset="0.99" />
      <stop
         id="stop3457-9"
         style="stop-color:#800E08"
         offset="1" />
    </radialGradient>
    <linearGradient
       y2="140.742"
       x2="9.9886999"
       y1="197.33591"
       x1="26.669901"
       gradientUnits="userSpaceOnUse"
       id="XMLID_31_-6">
      <stop
         id="stop3462-4"
         style="stop-color:#8B2114"
         offset="0" />
      <stop
         id="stop3464-8"
         style="stop-color:#8B2114"
         offset="0" />
      <stop
         id="stop3466-0"
         style="stop-color:#9E100A"
         offset="0.43" />
      <stop
         id="stop3468-8"
         style="stop-color:#B3100C"
         offset="0.99" />
      <stop
         id="stop3470-1"
         style="stop-color:#B3100C"
         offset="1" />
    </linearGradient>
    <linearGradient
       y2="26.305901"
       x2="192.039"
       y1="9.7979002"
       x1="154.6411"
       gradientUnits="userSpaceOnUse"
       id="XMLID_32_-0">
      <stop
         id="stop3475-2"
         style="stop-color:#B31000"
         offset="0" />
      <stop
         id="stop3477-2"
         style="stop-color:#B31000"
         offset="0" />
      <stop
         id="stop3479-9"
         style="stop-color:#910F08"
         offset="0.44" />
      <stop
         id="stop3481-7"
         style="stop-color:#791C12"
         offset="0.99" />
      <stop
         id="stop3483-5"
         style="stop-color:#791C12"
         offset="1" />
    </linearGradient>
    <linearGradient
       inkscape:collect="always"
       xlink:href="#XMLID_17_-9"
       id="linearGradient3448"
       gradientUnits="userSpaceOnUse"
       x1="174.0737"
       y1="215.5488"
       x2="132.27631"
       y2="141.7533" />
    <linearGradient
       inkscape:collect="always"
       id="linearGradient11301">
      <stop
         style="stop-color:#ffe052;stop-opacity:1"
         offset="0"
         id="stop11303" />
      <stop
         style="stop-color:#ffc331;stop-opacity:1"
         offset="1"
         id="stop11305" />
    </linearGradient>
    <linearGradient
       inkscape:collect="always"
       xlink:href="#linearGradient11301"
       id="linearGradient11307"
       x1="89.136749"
       y1="111.92053"
       x2="147.77737"
       y2="168.1012"
       gradientUnits="userSpaceOnUse" />
    <linearGradient
       inkscape:collect="always"
       id="linearGradient9515">
      <stop
         style="stop-color:#387eb8;stop-opacity:1"
         offset="0"
         id="stop9517" />
      <stop
         style="stop-color:#366994;stop-opacity:1"
         offset="1"
         id="stop9519" />
    </linearGradient>
    <linearGradient
       inkscape:collect="always"
       xlink:href="#linearGradient9515"
       id="linearGradient9521"
       x1="55.549179"
       y1="77.070274"
       x2="110.14919"
       y2="131.85291"
       gradientUnits="userSpaceOnUse" />
  </defs>
  <sodipodi:namedview
     id="base"
     pagecolor="#ffffff"
     bordercolor="#666666"
     borderopacity="1.0"
     inkscape:pageopacity="0.0"
     inkscape:pageshadow="2"
     inkscape:zoom="0.15464737"
     inkscape:cx="-1080.3401"
     inkscape:cy="146.01236"
     inkscape:document-units="mm"
     inkscape:current-layer="layer1"
     showgrid="false"
     inkscape:window-width="1100"
     inkscape:window-height="664"
     inkscape:window-x="2050"
     inkscape:window-y="214"
     inkscape:window-maximized="0"
     fit-margin-top="0"
     fit-margin-left="0"
     fit-margin-right="0"
     fit-margin-bottom="0" />
  <metadata
     id="metadata5">
    <rdf:RDF>
      <cc:Work
         rdf:about="">
        <dc:format>image/svg+xml</dc:format>
        <dc:type
           rdf:resource="http://purl.org/dc/dcmitype/StillImage" />
        <dc:title />
      </cc:Work>
    </rdf:RDF>
  </metadata>
  <g
     inkscape:label="Layer 1"
     inkscape:groupmode="layer"
     id="layer1"
     transform="translate(-0.59782667,114.84811)">
    <g
       id="g4923"
       transform="matrix(2.4539542,0,0,2.4539542,-55.448737,-212.24978)"
       inkscape:export-xdpi="96"
       inkscape:export-ydpi="96">
      <circle
         r="26.080357"
         cy="65.772079"
         cx="48.919643"
         id="path10"
         style="fill:#00aeef;fill-opacity:1;stroke-width:2;stroke-miterlimit:3.4000001;stroke-dasharray:2.00000003, 2.00000003;stroke-dashoffset:0" />
      <g
         transform="matrix(0.12617978,0,0,0.12653103,50,66.852434)"
         id="g4877"
         style="overflow:visible">
        <polygon
           style="clip-rule:evenodd;fill:url(#linearGradient3448);fill-rule:evenodd"
           points="186.849,187.641 198.13,39.95 153.5,130.41 40.38,197.58 "
           id="polygon3282" />
        <polygon
           style="clip-rule:evenodd;fill:url(#XMLID_18_-7);fill-rule:evenodd"
           points="140.209,145.93 187.089,187.54 174.5,100.65 "
           id="polygon3293" />
        <polygon
           style="clip-rule:evenodd;fill:url(#XMLID_19_-4);fill-rule:evenodd"
           points="40.87,197.391 187.259,187.54 95.03,180.3 "
           id="polygon3304" />
        <polygon
           style="clip-rule:evenodd;fill:url(#XMLID_20_-9);fill-rule:evenodd"
           points="13.34,132.771 41,197.41 64.04,121.93 "
           id="polygon3319" />
        <polygon
           style="clip-rule:evenodd;fill:url(#XMLID_21_-3);fill-rule:evenodd"
           points="58.33,120.01 140.2,146.18 119,63.14 "
           id="polygon3334" />
        <polygon
           style="clip-rule:evenodd;fill:url(#XMLID_22_-7);fill-rule:evenodd"
           points="120,69.1 193.32,64.31 135.97,17.47 "
           id="polygon3349" />
        <polygon
           style="clip-rule:evenodd;fill:url(#XMLID_23_-9);fill-rule:evenodd"
           points="111.49,0.52 166.5,0.77 132.77,19.41 "
           id="polygon3362" />
        <polygon
           style="clip-rule:evenodd;fill:url(#XMLID_24_-3);fill-rule:evenodd"
           points="2.7,101.62 0,158.09 14.13,132.32 "
           id="polygon3375" />
        <path
           style="clip-rule:evenodd;fill:#ffffff;fill-rule:evenodd"
           inkscape:connector-curvature="0"
           d="m 1.94,100.65 11.5,32.62 49.97,-11.211 57.05,-53.02 L 136.56,17.9 111.209,0 68.109,16.13 C 54.53,28.76 28.18,53.75 27.23,54.22 26.29,54.7 9.83,85.81 1.94,100.65 Z"
           id="path3377" />
        <path
           style="clip-rule:evenodd;fill:url(#XMLID_25_-9);fill-rule:evenodd"
           inkscape:connector-curvature="0"
           d="m 42.32,42.05 c 29.43,-29.18 67.37,-46.42 81.93,-31.73 14.551,14.69 -0.88,50.39 -30.31,79.56 -29.43,29.17 -66.9,47.36 -81.45,32.67 -14.56,-14.68 0.4,-51.33 29.83,-80.5 z"
           id="path3400" />
        <path
           style="clip-rule:evenodd;fill:url(#XMLID_26_-2);fill-rule:evenodd"
           inkscape:connector-curvature="0"
           d="m 41,197.38 22.86,-75.72 75.92,24.39 C 112.33,171.79 81.8,193.55 41,197.38 Z"
           id="path3413" />
        <path
           style="clip-rule:evenodd;fill:url(#XMLID_27_-1);fill-rule:evenodd"
           inkscape:connector-curvature="0"
           d="m 120.56,68.89 19.49,77.2 C 162.98,121.98 183.56,96.06 193.639,64 Z"
           id="path3424" />
        <path
           style="clip-rule:evenodd;fill:url(#XMLID_28_-1);fill-rule:evenodd"
           inkscape:connector-curvature="0"
           d="m 193.44,64.39 c 7.8,-23.54 9.6,-57.31 -27.181,-63.58 l -30.18,16.67 z"
           id="path3435" />
        <path
           style="clip-rule:evenodd;fill:#9e1209;fill-rule:evenodd"
           inkscape:connector-curvature="0"
           d="m 0,157.75 c 1.08,38.851 29.11,39.43 41.05,39.771 L 13.47,133.11 Z"
           id="path3437" />
        <path
           style="clip-rule:evenodd;fill:url(#XMLID_29_-4);fill-rule:evenodd"
           inkscape:connector-curvature="0"
           d="m 120.669,69.01 c 17.62,10.83 53.131,32.58 53.851,32.98 1.119,0.63 15.31,-23.93 18.53,-37.81 z"
           id="path3448" />
        <path
           style="clip-rule:evenodd;fill:url(#XMLID_30_-6);fill-rule:evenodd"
           inkscape:connector-curvature="0"
           d="m 63.83,121.66 30.56,58.96 c 18.07,-9.8 32.22,-21.74 45.18,-34.53 z"
           id="path3459" />
        <path
           style="clip-rule:evenodd;fill:url(#XMLID_31_-6);fill-rule:evenodd"
           inkscape:connector-curvature="0"
           d="m 13.35,133.19 -4.33,51.56 c 8.17,11.16 19.41,12.13 31.2,11.26 -8.53,-21.23 -25.57,-63.68 -26.87,-62.82 z"
           id="path3472" />
        <path
           style="clip-rule:evenodd;fill:url(#XMLID_32_-0);fill-rule:evenodd"
           inkscape:connector-curvature="0"
           d="m 135.9,17.61 60.71,8.52 C 193.37,12.4 183.42,3.54 166.46,0.77 Z"
           id="path3485" />
      </g>
    </g>
    <g
       id="g4931"
       transform="matrix(2.4539542,0,0,2.4539541,-57.309872,-225.46772)"
       inkscape:export-xdpi="96"
       inkscape:export-ydpi="96">
      <circle
         r="26.080357"
         cy="132.17426"
         cx="49.678066"
         id="path10-3"
         style="fill:#00aeef;fill-opacity:1;stroke-width:2;stroke-miterlimit:3.4000001;stroke-dasharray:2.00000005, 2.00000005;stroke-dashoffset:0" />
      <g
         transform="matrix(0.05095801,0,0,0.05722133,41.805101,128.79135)"
         id="g4887">
        <path
           style="fill:#61dafb"
           inkscape:connector-curvature="0"
           d="m 666.3,296.5 c 0,-32.5 -40.7,-63.3 -103.1,-82.4 14.4,-63.6 8,-114.2 -20.2,-130.4 -6.5,-3.8 -14.1,-5.6 -22.4,-5.6 v 22.3 c 4.6,0 8.3,0.9 11.4,2.6 13.6,7.8 19.5,37.5 14.9,75.7 -1.1,9.4 -2.9,19.3 -5.1,29.4 -19.6,-4.8 -41,-8.5 -63.5,-10.9 -13.5,-18.5 -27.5,-35.3 -41.6,-50 32.6,-30.3 63.2,-46.9 84,-46.9 V 78 c 0,0 0,0 0,0 -27.5,0 -63.5,19.6 -99.9,53.6 C 384.4,97.8 348.4,78.4 320.9,78.4 v 22.3 c 20.7,0 51.4,16.5 84,46.6 -14,14.7 -28,31.4 -41.3,49.9 -22.6,2.4 -44,6.1 -63.6,11 -2.3,-10 -4,-19.7 -5.2,-29 -4.7,-38.2 1.1,-67.9 14.6,-75.8 3,-1.8 6.9,-2.6 11.5,-2.6 V 78.5 c 0,0 0,0 0,0 -8.4,0 -16,1.8 -22.6,5.6 -28.1,16.2 -34.4,66.7 -19.9,130.1 -62.2,19.2 -102.7,49.9 -102.7,82.3 0,32.5 40.7,63.3 103.1,82.4 -14.4,63.6 -8,114.2 20.2,130.4 6.5,3.8 14.1,5.6 22.5,5.6 27.5,0 63.5,-19.6 99.9,-53.6 36.4,33.8 72.4,53.2 99.9,53.2 8.4,0 16,-1.8 22.6,-5.6 28.1,-16.2 34.4,-66.7 19.9,-130.1 62,-19.1 102.5,-49.9 102.5,-82.3 z M 536.1,229.8 c -3.7,12.9 -8.3,26.2 -13.5,39.5 -4.1,-8 -8.4,-16 -13.1,-24 -4.6,-8 -9.5,-15.8 -14.4,-23.4 14.2,2.1 27.9,4.7 41,7.9 z m -45.8,106.5 c -7.8,13.5 -15.8,26.3 -24.1,38.2 -14.9,1.3 -30,2 -45.2,2 -15.1,0 -30.2,-0.7 -45,-1.9 -8.3,-11.9 -16.4,-24.6 -24.2,-38 -7.6,-13.1 -14.5,-26.4 -20.8,-39.8 6.2,-13.4 13.2,-26.8 20.7,-39.9 7.8,-13.5 15.8,-26.3 24.1,-38.2 14.9,-1.3 30,-2 45.2,-2 15.1,0 30.2,0.7 45,1.9 8.3,11.9 16.4,24.6 24.2,38 7.6,13.1 14.5,26.4 20.8,39.8 -6.3,13.4 -13.2,26.8 -20.7,39.9 z m 32.3,-13 c 5.4,13.4 10,26.8 13.8,39.8 -13.1,3.2 -26.9,5.9 -41.2,8 4.9,-7.7 9.8,-15.6 14.4,-23.7 4.6,-8 8.9,-16.1 13,-24.1 z M 421.2,430 c -9.3,-9.6 -18.6,-20.3 -27.8,-32 9,0.4 18.2,0.7 27.5,0.7 9.4,0 18.7,-0.2 27.8,-0.7 -9,11.7 -18.3,22.4 -27.5,32 z m -74.4,-58.9 c -14.2,-2.1 -27.9,-4.7 -41,-7.9 3.7,-12.9 8.3,-26.2 13.5,-39.5 4.1,8 8.4,16 13.1,24 4.7,8 9.5,15.8 14.4,23.4 z M 420.7,163 c 9.3,9.6 18.6,20.3 27.8,32 -9,-0.4 -18.2,-0.7 -27.5,-0.7 -9.4,0 -18.7,0.2 -27.8,0.7 9,-11.7 18.3,-22.4 27.5,-32 z m -74,58.9 c -4.9,7.7 -9.8,15.6 -14.4,23.7 -4.6,8 -8.9,16 -13,24 -5.4,-13.4 -10,-26.8 -13.8,-39.8 13.1,-3.1 26.9,-5.8 41.2,-7.9 z m -90.5,125.2 c -35.4,-15.1 -58.3,-34.9 -58.3,-50.6 0,-15.7 22.9,-35.6 58.3,-50.6 8.6,-3.7 18,-7 27.7,-10.1 5.7,19.6 13.2,40 22.5,60.9 -9.2,20.8 -16.6,41.1 -22.2,60.6 -9.9,-3.1 -19.3,-6.5 -28,-10.2 z M 310,490 c -13.6,-7.8 -19.5,-37.5 -14.9,-75.7 1.1,-9.4 2.9,-19.3 5.1,-29.4 19.6,4.8 41,8.5 63.5,10.9 13.5,18.5 27.5,35.3 41.6,50 -32.6,30.3 -63.2,46.9 -84,46.9 -4.5,-0.1 -8.3,-1 -11.3,-2.7 z m 237.2,-76.2 c 4.7,38.2 -1.1,67.9 -14.6,75.8 -3,1.8 -6.9,2.6 -11.5,2.6 -20.7,0 -51.4,-16.5 -84,-46.6 14,-14.7 28,-31.4 41.3,-49.9 22.6,-2.4 44,-6.1 63.6,-11 2.3,10.1 4.1,19.8 5.2,29.1 z m 38.5,-66.7 c -8.6,3.7 -18,7 -27.7,10.1 -5.7,-19.6 -13.2,-40 -22.5,-60.9 9.2,-20.8 16.6,-41.1 22.2,-60.6 9.9,3.1 19.3,6.5 28.1,10.2 35.4,15.1 58.3,34.9 58.3,50.6 -0.1,15.7 -23,35.6 -58.4,50.6 z"
           id="path4879" />
        <polygon
           style="fill:#61dafb"
           points=""
           id="polygon4881" />
        <circle
           style="fill:#61dafb"
           cx="420.89999"
           cy="296.5"
           r="45.700001"
           id="circle4883" />
        <polygon
           style="fill:#61dafb"
           points=""
           id="polygon4885" />
      </g>
    </g>
    <g
       id="g4935"
       transform="matrix(2.4539542,0,0,2.4539542,-65.57933,-257.19724)"
       inkscape:export-xdpi="96"
       inkscape:export-ydpi="96">
      <circle
         r="26.080357"
         cy="206.12"
         cx="53.047916"
         id="path10-6"
         style="fill:#00aeef;fill-opacity:1;stroke-width:2;stroke-miterlimit:3.4000001;stroke-dasharray:2.00000005, 2.00000005;stroke-dashoffset:0" />
      <rect
         ry="7.4138203"
         y="197.98271"
         x="47.263103"
         height="34.217632"
         width="31.86517"
         id="rect4901"
         style="fill:#00aeef;fill-opacity:1;stroke-width:2.57336783;stroke-miterlimit:3.4000001;stroke-dasharray:2.57336792, 2.57336792;stroke-dashoffset:0" />
    </g>
    <g
       id="g996"
       transform="translate(60.101046)"
       inkscape:export-filename="/home/situm/Code/situm-dashboard-extension-pack/python-extension-pack/icon.png"
       inkscape:export-xdpi="96"
       inkscape:export-ydpi="96">
      <circle
         style="opacity:0.95999995;fill:#00aeef;fill-opacity:1;stroke-width:4.90790844;stroke-miterlimit:3.4000001;stroke-dasharray:4.90790851, 4.90790851;stroke-dashoffset:0"
         id="path10-6-3"
         cx="4.4967818"
         cy="424.89319"
         r="64" />
      <g
         style="opacity:0.95999995"
         inkscape:label="Calque 1"
         id="layer1-7"
         transform="matrix(0.4528118,0,0,0.4551823,-195.84661,324.3125)">
        <g
           id="g1894"
           transform="translate(428.42338,184.2561)">
          <path
             inkscape:connector-curvature="0"
             style="color:#000000;display:inline;overflow:visible;visibility:visible;opacity:1;fill:url(#linearGradient9521);fill-opacity:1;fill-rule:nonzero;stroke:none;stroke-width:1;stroke-linecap:butt;stroke-linejoin:miter;stroke-miterlimit:4;stroke-dasharray:none;stroke-dashoffset:0;stroke-opacity:1;marker:none;marker-start:none;marker-mid:none;marker-end:none"
             d="M 99.75,67.46875 C 71.718268,67.468752 73.46875,79.625 73.46875,79.625 L 73.5,92.21875 h 26.75 V 96 H 62.875 c 0,0 -17.9375,-2.034276 -17.9375,26.25 -2e-6,28.28427 15.65625,27.28125 15.65625,27.28125 h 9.34375 v -13.125 c 0,0 -0.503652,-15.65625 15.40625,-15.65625 15.9099,0 26.53125,0 26.53125,0 0,0 14.90625,0.24096 14.90625,-14.40625 0,-14.647206 0,-24.21875 0,-24.21875 0,-2e-6 2.26318,-14.65625 -27.03125,-14.65625 z M 85,75.9375 c 2.661429,-2e-6 4.8125,2.151071 4.8125,4.8125 2e-6,2.661429 -2.151071,4.8125 -4.8125,4.8125 -2.661429,2e-6 -4.8125,-2.151071 -4.8125,-4.8125 -2e-6,-2.661429 2.151071,-4.8125 4.8125,-4.8125 z"
             id="path8615" />
          <path
             inkscape:connector-curvature="0"
             id="path8620"
             d="m 100.5461,177.31485 c 28.03174,0 26.28125,-12.15625 26.28125,-12.15625 l -0.0312,-12.59375 h -26.75 v -3.78125 h 37.375 c 0,0 17.9375,2.03427 17.9375,-26.25001 10e-6,-28.284267 -15.65625,-27.281247 -15.65625,-27.281247 h -9.34375 v 13.124997 c 0,0 0.50366,15.65625 -15.40625,15.65625 -15.909902,0 -26.531252,0 -26.531252,0 0,0 -14.90625,-0.24096 -14.90625,14.40626 0,14.6472 0,24.21875 0,24.21875 0,0 -2.26318,14.65625 27.031252,14.65625 z m 14.75,-8.46875 c -2.66143,0 -4.8125,-2.15107 -4.8125,-4.8125 0,-2.66143 2.15107,-4.8125 4.8125,-4.8125 2.66143,0 4.8125,2.15107 4.8125,4.8125 1e-5,2.66143 -2.15107,4.8125 -4.8125,4.8125 z"
             style="color:#000000;display:inline;overflow:visible;visibility:visible;opacity:1;fill:url(#linearGradient11307);fill-opacity:1;fill-rule:nonzero;stroke:none;stroke-width:1;stroke-linecap:butt;stroke-linejoin:miter;stroke-miterlimit:4;stroke-dasharray:none;stroke-dashoffset:0;stroke-opacity:1;marker:none;marker-start:none;marker-mid:none;marker-end:none" />
        </g>
      </g>
    </g>
  </g>
</svg>
